<?xml version="1.0" encoding="UTF-8"?>
<svg id="Layer_1" data-name="Layer 1" xmlns="http://www.w3.org/2000/svg" viewBox="0 0 300 300">
  <defs>
    <style>
      .cls-1 {
        fill: #606161;
      }
    </style>
  </defs>
  <path class="cls-1" d="M219.14,182.1c0,2.47-.93,4.42-2.78,5.87-.62,2.26-.93,6.07-.93,11.42s.31,9.16,.93,11.42c1.85,1.65,2.78,3.6,2.78,5.87v4.94c0,2.06-.72,3.81-2.16,5.25s-3.19,2.16-5.25,2.16H110.49c-8.23,0-15.23-2.88-20.99-8.64-5.76-5.76-8.64-12.76-8.64-20.99V100.61c0-8.23,2.88-15.23,8.64-20.99,5.76-5.76,12.76-8.64,20.99-8.64h101.24c2.06,0,3.81,.72,5.25,2.16s2.16,3.19,2.16,5.25v103.71Zm-20.68,27.16c-.21-2.67-.31-5.97-.31-9.88s.1-7.2,.31-9.88H110.49c-2.68,0-4.99,.98-6.94,2.93-1.96,1.96-2.93,4.27-2.93,6.95s.98,4.99,2.93,6.94c1.95,1.96,4.27,2.93,6.94,2.93h87.97ZM120.37,112.34v6.17c0,.41,.21,.82,.62,1.23s.82,.62,1.23,.62h65.44c.41,0,.82-.21,1.23-.62,.41-.41,.62-.82,.62-1.23v-6.17c0-.41-.21-.82-.62-1.23-.41-.41-.82-.62-1.23-.62H122.22c-.41,0-.82,.21-1.23,.62s-.62,.82-.62,1.23Zm0,19.75v6.17c0,.41,.21,.82,.62,1.23s.82,.62,1.23,.62h65.44c.41,0,.82-.21,1.23-.62,.41-.41,.62-.82,.62-1.23v-6.17c0-.41-.21-.82-.62-1.23-.41-.41-.82-.62-1.23-.62H122.22c-.41,0-.82,.21-1.23,.62s-.62,.82-.62,1.23Z"/>
</svg>